# xmcd CD database file
#
# Track frame offsets:
#	210
#	22335
#	46710
#	66210
#	89085
#	108960
#	126585
#	148785
#	172710
#	193935
#	215685
#	239235
#	258810
#
# Disc length: 3735 seconds
#
# Revision: 0
# Processed by: cddbd v1.5.2PL0 Copyright (c) Steve Scherf et al.
# Submitted via: CDex 1.51
#
DISCID=ca0e950d
DTITLE=Mike Stevens - Set The Spirit Free
DYEAR=1900
DGENRE=Jazz
TTITLE0=Coll With Your Love
TTITLE1=Set The Spirit Free
TTITLE2=Sunset Trip
TTITLE3=Lovetko
TTITLE4=Tell Her
TTITLE5=I'm a Romantic
TTITLE6=Ride The Bullet Train
TTITLE7=Precious
TTITLE8=Latinesque
TTITLE9=The Finest One
TTITLE10=Sparkle (In Your Eyes)
TTITLE11=The Living Groove
TTITLE12=Roxanne
EXTD=
EXTT0=
EXTT1=
EXTT2=
EXTT3=
EXTT4=
EXTT5=
EXTT6=
EXTT7=
EXTT8=
EXTT9=
EXTT10=
EXTT11=
EXTT12=
PLAYORDER=
